<svg width="24" height="24" viewBox="0 0 24 24" fill="none" xmlns="http://www.w3.org/2000/svg">
<rect width="24" height="24" fill="#343434"/>
<path d="M10.3916 16.1219C10.7313 17.6837 11.0677 20.1094 9.87317 20.1094C8.93835 20.1094 8.17218 18.2487 7.73267 16.8714C7.73641 16.869 7.74002 16.8665 7.74376 16.8642C8.38851 16.4619 9.33077 16.1933 10.3182 16.1261C10.3427 16.1244 10.3672 16.1233 10.3916 16.1219Z" fill="#FBFCFD"/>
<path d="M18.2142 16.1768C19.1023 17.379 20.2231 19.1444 19.4643 19.5232C19.1292 19.6904 18.4187 19.3984 17.7589 19.0423C17.8144 18.8821 17.8617 18.7201 17.9007 18.5599C18.0735 17.8506 18.15 16.9839 18.2142 16.1768Z" fill="#FBFCFD"/>
<path fill-rule="evenodd" clip-rule="evenodd" d="M6.74156 10.339C7.72006 10.5345 13.7265 10.781 14.9623 9.75282C15.6311 9.1965 16.1493 7.92634 16.577 6.87773C16.9399 5.98842 17.2377 5.25847 17.5071 5.25847C17.8562 5.25847 18.0157 5.7382 18.2004 6.2937C18.3263 6.6726 18.464 7.08675 18.6815 7.40794C18.8686 7.68415 19.2585 7.93406 19.6869 8.2087C20.4871 8.72166 21.4219 9.32092 21.4219 10.339C21.4219 11.9023 19.073 12.0977 19.073 12.0977C19.073 12.0977 17.703 13.0747 17.5071 15.2242C17.4848 15.4689 17.4651 15.7187 17.4452 15.9693C17.2909 17.9192 17.1331 19.914 15.7455 19.914C14.935 19.914 14.7013 19.0241 14.4473 18.0572C14.2105 17.1558 13.9562 16.1875 13.2007 15.8104C11.6348 15.0288 8.89467 15.2242 7.32877 16.2012C6.7182 16.5822 6.28377 17.2828 5.85425 17.9755C5.18219 19.0593 4.52215 20.1237 3.21828 19.914C1.83977 19.6922 2.97256 17.4802 3.95048 15.5707C4.48869 14.5197 4.97999 13.5603 4.97992 13.0747C4.97984 12.5129 4.64957 12.05 4.27393 11.5235C3.73502 10.7681 3.10275 9.88186 3.21809 8.38498C3.41383 5.84469 5.17547 3.89062 6.9373 3.89062C8.69912 3.89063 9.67743 6.82172 8.50301 7.21254C7.80765 7.44393 7.52964 7.08305 7.29335 6.77633C7.13056 6.56502 6.98758 6.37941 6.74156 6.43091C6.13846 6.55717 5.45172 7.51189 5.37121 8.38498C5.29069 9.25807 5.76306 10.1436 6.74156 10.339ZM17.6499 8.9712C17.8457 8.58038 19.2803 9.33901 19.073 9.75282C18.8658 10.1666 17.4542 9.36201 17.6499 8.9712Z" fill="#FBFCFD"/>
</svg>
